<svg xmlns="http://www.w3.org/2000/svg" xmlns:xlink="http://www.w3.org/1999/xlink" width="25px"
                            height="25px">
                            <path fill-rule="evenodd" fill="rgb(255, 255, 255)"
                                d="M23.471,22.791 L22.768,23.493 C22.063,24.199 20.919,24.199 20.213,23.493 L15.793,19.073 C14.207,20.067 12.331,20.643 10.321,20.643 C4.621,20.643 -0.000,16.022 -0.000,10.321 C-0.000,4.621 4.621,-0.000 10.321,-0.000 C16.022,-0.000 20.643,4.621 20.643,10.321 C20.643,12.343 20.061,14.229 19.056,15.821 L23.471,20.236 C24.176,20.941 24.176,22.085 23.471,22.791 ZM10.321,2.856 C6.199,2.856 2.856,6.198 2.856,10.321 C2.856,14.444 6.199,17.786 10.321,17.786 C14.444,17.786 17.786,14.444 17.786,10.321 C17.786,6.198 14.444,2.856 10.321,2.856 Z" />
                        </svg>